<svg xmlns="http://www.w3.org/2000/svg" xmlns:xlink="http://www.w3.org/1999/xlink" width="500" zoomAndPan="magnify" viewBox="0 0 375 374.999991" height="500" preserveAspectRatio="xMidYMid meet" version="1.0"><defs><g/><clipPath id="f1e96dcbe4"><path d="M 37.5 37.5 L 337.5 37.5 L 337.5 337.5 L 37.5 337.5 Z M 37.5 37.5 " clip-rule="nonzero"/></clipPath><clipPath id="44ef411903"><path d="M 187.5 37.5 C 104.65625 37.5 37.5 104.65625 37.5 187.5 C 37.5 270.34375 104.65625 337.5 187.5 337.5 C 270.34375 337.5 337.5 270.34375 337.5 187.5 C 337.5 104.65625 270.34375 37.5 187.5 37.5 Z M 187.5 37.5 " clip-rule="nonzero"/></clipPath><clipPath id="59f763df1a"><path d="M 76.941406 226.71875 L 108.703125 226.71875 L 108.703125 315.21875 L 76.941406 315.21875 Z M 76.941406 226.71875 " clip-rule="nonzero"/></clipPath><clipPath id="e9ccf2ce3e"><path d="M 283.59375 213.894531 L 337.5 213.894531 L 337.5 239.515625 L 283.59375 239.515625 Z M 283.59375 213.894531 " clip-rule="nonzero"/></clipPath></defs><g clip-path="url(#f1e96dcbe4)"><g clip-path="url(#44ef411903)"><path fill="#272727" d="M 37.5 37.5 L 337.5 37.5 L 337.5 337.5 L 37.5 337.5 Z M 37.5 37.5 " fill-opacity="1" fill-rule="nonzero"/></g></g><g fill="#ffffff" fill-opacity="1"><g transform="translate(67.643815, 239.400325)"><g><path d="M 103.921875 0 L 103.921875 -38.75 C 103.921875 -43.539062 104.101562 -48.460938 104.46875 -53.515625 C 104.832031 -58.566406 105.222656 -62.8125 105.640625 -66.25 C 106.054688 -69.6875 106.316406 -71.875 106.421875 -72.8125 L 105.796875 -72.8125 L 85.953125 0 L 58.90625 0 L 38.90625 -72.65625 L 38.28125 -72.65625 C 38.382812 -71.71875 38.671875 -69.554688 39.140625 -66.171875 C 39.609375 -62.785156 40.050781 -58.566406 40.46875 -53.515625 C 40.882812 -48.460938 41.09375 -43.539062 41.09375 -38.75 L 41.09375 0 L 9.375 0 L 9.375 -107.515625 L 58.125 -107.515625 L 74.375 -45.46875 L 75 -45.46875 L 91.109375 -107.515625 L 138.140625 -107.515625 L 138.140625 0 Z M 103.921875 0 "/></g></g></g><path stroke-linecap="butt" transform="matrix(0.494289, 0, 0, 0.494289, 119.961465, 78.262113)" fill="none" stroke-linejoin="miter" d="M 264.322732 164.147545 L 264.322732 325.996182 L 194.47809 325.996182 L 194.47809 164.147545 L 123.005479 164.147545 L 123.005479 108.49627 L 335.487135 108.49627 L 335.487135 164.147545 Z M 264.322732 164.147545 " stroke="#272727" stroke-width="45.050236" stroke-opacity="1" stroke-miterlimit="4"/><g fill="#ffffff" fill-opacity="1"><g transform="translate(177.175415, 239.400325)"><g><path d="M 73.4375 -80.015625 L 73.4375 0 L 38.90625 0 L 38.90625 -80.015625 L 3.59375 -80.015625 L 3.59375 -107.515625 L 108.609375 -107.515625 L 108.609375 -80.015625 Z M 73.4375 -80.015625 "/></g></g></g><g clip-path="url(#59f763df1a)"><path fill="#ffffff" d="M 76.941406 226.71875 L 108.703125 226.71875 L 108.703125 315.171875 L 76.941406 315.171875 Z M 76.941406 226.71875 " fill-opacity="1" fill-rule="nonzero"/></g><g clip-path="url(#e9ccf2ce3e)"><path fill="#ffffff" d="M 283.59375 213.894531 L 337.539062 213.894531 L 337.539062 239.515625 L 283.59375 239.515625 Z M 283.59375 213.894531 " fill-opacity="1" fill-rule="nonzero"/></g><path stroke-linecap="butt" transform="matrix(0.75, -0.000000000000000372, 0.000000000000000372, 0.75, 76.942396, 116.714992)" fill="none" stroke-linejoin="miter" d="M -0.00132 1.999802 L 65.186184 1.999802 " stroke="#ffffff" stroke-width="4" stroke-opacity="1" stroke-miterlimit="4"/><g fill="#ffffff" fill-opacity="1"><g transform="translate(122.059735, 267.24971)"><g><path d="M 11.515625 0 L 10.90625 -7.59375 L 10.828125 -7.59375 L 8.203125 -0.078125 L 6.46875 -0.078125 L 3.84375 -7.59375 L 3.765625 -7.59375 L 3.171875 0 L 0.25 0 L 1.390625 -12.796875 L 4.5 -12.796875 L 7.34375 -5.421875 L 10.171875 -12.796875 L 13.28125 -12.796875 L 14.421875 0 Z M 11.515625 0 "/></g></g></g><g fill="#ffffff" fill-opacity="1"><g transform="translate(137.746609, 267.24971)"><g><path d="M 0.359375 -6.40625 C 0.359375 -8.257812 0.988281 -9.828125 2.25 -11.109375 C 3.507812 -12.390625 5.03125 -13.03125 6.8125 -13.03125 C 8.601562 -13.03125 10.125 -12.390625 11.375 -11.109375 C 12.625 -9.835938 13.25 -8.269531 13.25 -6.40625 C 13.25 -4.53125 12.632812 -2.953125 11.40625 -1.671875 C 10.175781 -0.398438 8.644531 0.234375 6.8125 0.234375 C 4.9375 0.234375 3.390625 -0.394531 2.171875 -1.65625 C 0.960938 -2.925781 0.359375 -4.507812 0.359375 -6.40625 Z M 3.5 -6.40625 C 3.5 -5.738281 3.601562 -5.125 3.8125 -4.5625 C 4.019531 -4.007812 4.378906 -3.539062 4.890625 -3.15625 C 5.410156 -2.78125 6.050781 -2.59375 6.8125 -2.59375 C 7.894531 -2.59375 8.710938 -2.960938 9.265625 -3.703125 C 9.816406 -4.453125 10.09375 -5.351562 10.09375 -6.40625 C 10.09375 -7.445312 9.8125 -8.34375 9.25 -9.09375 C 8.6875 -9.84375 7.875 -10.21875 6.8125 -10.21875 C 5.757812 -10.21875 4.941406 -9.84375 4.359375 -9.09375 C 3.785156 -8.34375 3.5 -7.445312 3.5 -6.40625 Z M 3.5 -6.40625 "/></g></g></g><g fill="#ffffff" fill-opacity="1"><g transform="translate(152.362899, 267.24971)"><g><path d="M 3.84375 -5.140625 L 3.84375 0 L 0.9375 0 L 0.9375 -12.796875 L 3.84375 -12.796875 L 3.84375 -7.703125 L 7.96875 -7.703125 L 7.96875 -12.796875 L 10.890625 -12.796875 L 10.890625 0 L 7.96875 0 L 7.96875 -5.140625 Z M 3.84375 -5.140625 "/></g></g></g><g fill="#ffffff" fill-opacity="1"><g transform="translate(165.194884, 267.24971)"><g><path d="M 7.4375 -12.796875 L 12.59375 0 L 9.46875 0 L 8.515625 -2.5625 L 3.640625 -2.5625 L 2.703125 0 L -0.4375 0 L 4.734375 -12.796875 Z M 7.53125 -5.125 L 6.09375 -8.84375 L 6.0625 -8.84375 L 4.640625 -5.125 Z M 7.53125 -5.125 "/></g></g></g><g fill="#ffffff" fill-opacity="1"><g transform="translate(178.368223, 267.24971)"><g><path d="M 11.515625 0 L 10.90625 -7.59375 L 10.828125 -7.59375 L 8.203125 -0.078125 L 6.46875 -0.078125 L 3.84375 -7.59375 L 3.765625 -7.59375 L 3.171875 0 L 0.25 0 L 1.390625 -12.796875 L 4.5 -12.796875 L 7.34375 -5.421875 L 10.171875 -12.796875 L 13.28125 -12.796875 L 14.421875 0 Z M 11.515625 0 "/></g></g></g><g fill="#ffffff" fill-opacity="1"><g transform="translate(194.055096, 267.24971)"><g><path d="M 8.25 -12.796875 L 8.25 -10.234375 L 3.84375 -10.234375 L 3.84375 -7.703125 L 8.0625 -7.703125 L 8.0625 -5.140625 L 3.84375 -5.140625 L 3.84375 -2.5625 L 8.25 -2.5625 L 8.25 0 L 0.9375 0 L 0.9375 -12.796875 Z M 8.25 -12.796875 "/></g></g></g><g fill="#ffffff" fill-opacity="1"><g transform="translate(204.063229, 267.24971)"><g><path d="M 0.9375 -12.796875 L 4.640625 -12.796875 C 6.421875 -12.796875 7.941406 -12.1875 9.203125 -10.96875 C 10.460938 -9.757812 11.09375 -8.238281 11.09375 -6.40625 C 11.09375 -4.5625 10.460938 -3.03125 9.203125 -1.8125 C 7.953125 -0.601562 6.429688 0 4.640625 0 L 0.9375 0 Z M 3.84375 -2.609375 L 4.296875 -2.609375 C 5.359375 -2.609375 6.226562 -2.96875 6.90625 -3.6875 C 7.582031 -4.40625 7.925781 -5.304688 7.9375 -6.390625 C 7.9375 -7.472656 7.597656 -8.375 6.921875 -9.09375 C 6.242188 -9.820312 5.367188 -10.1875 4.296875 -10.1875 L 3.84375 -10.1875 Z M 3.84375 -2.609375 "/></g></g></g><g fill="#ffffff" fill-opacity="1"><g transform="translate(216.522845, 267.24971)"><g/></g></g><g fill="#ffffff" fill-opacity="1"><g transform="translate(221.767661, 267.24971)"><g><path d="M 0.125 -10.234375 L 0.125 -12.796875 L 9.125 -12.796875 L 9.125 -10.234375 L 6.078125 -10.234375 L 6.078125 0 L 3.171875 0 L 3.171875 -10.234375 Z M 0.125 -10.234375 "/></g></g></g><g fill="#ffffff" fill-opacity="1"><g transform="translate(232.02405, 267.24971)"><g><path d="M 7.4375 -12.796875 L 12.59375 0 L 9.46875 0 L 8.515625 -2.5625 L 3.640625 -2.5625 L 2.703125 0 L -0.4375 0 L 4.734375 -12.796875 Z M 7.53125 -5.125 L 6.09375 -8.84375 L 6.0625 -8.84375 L 4.640625 -5.125 Z M 7.53125 -5.125 "/></g></g></g><g fill="#ffffff" fill-opacity="1"><g transform="translate(245.197389, 267.24971)"><g><path d="M 3.84375 -5.140625 L 3.84375 0 L 0.9375 0 L 0.9375 -12.796875 L 3.84375 -12.796875 L 3.84375 -7.703125 L 7.96875 -7.703125 L 7.96875 -12.796875 L 10.890625 -12.796875 L 10.890625 0 L 7.96875 0 L 7.96875 -5.140625 Z M 3.84375 -5.140625 "/></g></g></g><g fill="#ffffff" fill-opacity="1"><g transform="translate(258.029373, 267.24971)"><g><path d="M 8.25 -12.796875 L 8.25 -10.234375 L 3.84375 -10.234375 L 3.84375 -7.703125 L 8.0625 -7.703125 L 8.0625 -5.140625 L 3.84375 -5.140625 L 3.84375 -2.5625 L 8.25 -2.5625 L 8.25 0 L 0.9375 0 L 0.9375 -12.796875 Z M 8.25 -12.796875 "/></g></g></g><g fill="#ffffff" fill-opacity="1"><g transform="translate(268.037506, 267.24971)"><g><path d="M 0.9375 -12.796875 L 5.515625 -12.796875 C 6.742188 -12.796875 7.742188 -12.46875 8.515625 -11.8125 C 9.296875 -11.15625 9.6875 -10.21875 9.6875 -9 C 9.6875 -8.0625 9.445312 -7.269531 8.96875 -6.625 C 8.5 -5.988281 7.863281 -5.546875 7.0625 -5.296875 L 11.46875 0 L 7.75 0 L 3.84375 -5.0625 L 3.84375 0 L 0.9375 0 Z M 3.84375 -7.125 L 4.1875 -7.125 C 4.457031 -7.125 4.6875 -7.128906 4.875 -7.140625 C 5.0625 -7.148438 5.269531 -7.1875 5.5 -7.25 C 5.738281 -7.3125 5.929688 -7.398438 6.078125 -7.515625 C 6.222656 -7.628906 6.347656 -7.789062 6.453125 -8 C 6.554688 -8.21875 6.609375 -8.484375 6.609375 -8.796875 C 6.609375 -9.109375 6.554688 -9.375 6.453125 -9.59375 C 6.347656 -9.8125 6.222656 -9.972656 6.078125 -10.078125 C 5.929688 -10.191406 5.738281 -10.28125 5.5 -10.34375 C 5.269531 -10.40625 5.0625 -10.441406 4.875 -10.453125 C 4.6875 -10.460938 4.457031 -10.46875 4.1875 -10.46875 L 3.84375 -10.46875 Z M 3.84375 -7.125 "/></g></g></g><g fill="#ffffff" fill-opacity="1"><g transform="translate(130.085252, 283.444633)"><g><path d="M 2.1875 0.078125 C 1.875 0.078125 1.59375 0.0351562 1.34375 -0.046875 C 1.09375 -0.140625 0.882812 -0.253906 0.71875 -0.390625 C 0.550781 -0.535156 0.425781 -0.6875 0.34375 -0.84375 L 0.65625 -1.234375 L 0.75 -1.234375 C 1.0625 -0.710938 1.539062 -0.453125 2.1875 -0.453125 C 2.5625 -0.453125 2.835938 -0.53125 3.015625 -0.6875 C 3.203125 -0.851562 3.296875 -1.070312 3.296875 -1.34375 C 3.296875 -1.507812 3.265625 -1.648438 3.203125 -1.765625 C 3.148438 -1.878906 3.050781 -1.976562 2.90625 -2.0625 C 2.769531 -2.144531 2.582031 -2.210938 2.34375 -2.265625 L 1.75 -2.40625 C 1.320312 -2.519531 1.003906 -2.6875 0.796875 -2.90625 C 0.585938 -3.132812 0.484375 -3.425781 0.484375 -3.78125 C 0.484375 -4.03125 0.546875 -4.25 0.671875 -4.4375 C 0.804688 -4.632812 0.992188 -4.785156 1.234375 -4.890625 C 1.484375 -5.003906 1.78125 -5.0625 2.125 -5.0625 C 2.5 -5.0625 2.8125 -5.007812 3.0625 -4.90625 C 3.320312 -4.800781 3.53125 -4.644531 3.6875 -4.4375 L 3.40625 -4.046875 L 3.3125 -4.046875 C 3.175781 -4.222656 3.007812 -4.351562 2.8125 -4.4375 C 2.613281 -4.519531 2.382812 -4.5625 2.125 -4.5625 C 1.769531 -4.5625 1.503906 -4.492188 1.328125 -4.359375 C 1.148438 -4.222656 1.0625 -4.035156 1.0625 -3.796875 C 1.0625 -3.566406 1.125 -3.382812 1.25 -3.25 C 1.382812 -3.125 1.609375 -3.023438 1.921875 -2.953125 L 2.515625 -2.8125 C 3.003906 -2.695312 3.359375 -2.519531 3.578125 -2.28125 C 3.796875 -2.039062 3.90625 -1.738281 3.90625 -1.375 C 3.90625 -1.09375 3.835938 -0.84375 3.703125 -0.625 C 3.578125 -0.40625 3.382812 -0.234375 3.125 -0.109375 C 2.875 0.015625 2.5625 0.078125 2.1875 0.078125 Z M 2.1875 0.078125 "/></g></g></g><g fill="#ffffff" fill-opacity="1"><g transform="translate(138.504948, 283.444633)"><g><path d="M 2.734375 0.078125 C 2.304688 0.078125 1.921875 -0.015625 1.578125 -0.203125 C 1.242188 -0.390625 0.976562 -0.675781 0.78125 -1.0625 C 0.59375 -1.445312 0.5 -1.925781 0.5 -2.5 C 0.5 -3.070312 0.59375 -3.550781 0.78125 -3.9375 C 0.976562 -4.320312 1.242188 -4.601562 1.578125 -4.78125 C 1.921875 -4.96875 2.304688 -5.0625 2.734375 -5.0625 C 3.171875 -5.0625 3.554688 -4.96875 3.890625 -4.78125 C 4.234375 -4.601562 4.5 -4.320312 4.6875 -3.9375 C 4.882812 -3.550781 4.984375 -3.070312 4.984375 -2.5 C 4.984375 -1.925781 4.882812 -1.445312 4.6875 -1.0625 C 4.5 -0.675781 4.234375 -0.390625 3.890625 -0.203125 C 3.554688 -0.015625 3.171875 0.078125 2.734375 0.078125 Z M 2.734375 -0.46875 C 3.253906 -0.46875 3.65625 -0.628906 3.9375 -0.953125 C 4.21875 -1.285156 4.359375 -1.800781 4.359375 -2.5 C 4.359375 -3.195312 4.21875 -3.707031 3.9375 -4.03125 C 3.65625 -4.363281 3.253906 -4.53125 2.734375 -4.53125 C 1.660156 -4.53125 1.125 -3.851562 1.125 -2.5 C 1.125 -1.144531 1.660156 -0.46875 2.734375 -0.46875 Z M 2.734375 -0.46875 "/></g></g></g><g fill="#ffffff" fill-opacity="1"><g transform="translate(148.124347, 283.444633)"><g><path d="M 3.6875 -5 L 3.6875 -4.515625 L 1.34375 -4.515625 L 1.34375 -2.6875 L 3.453125 -2.6875 L 3.453125 -2.203125 L 1.34375 -2.203125 L 1.34375 0 L 0.75 0 L 0.75 -5 Z M 3.6875 -5 "/></g></g></g><g fill="#ffffff" fill-opacity="1"><g transform="translate(156.222754, 283.444633)"><g><path d="M 3.90625 -5 L 3.90625 -4.5 L 2.328125 -4.5 L 2.328125 0 L 1.75 0 L 1.75 -4.5 L 0.1875 -4.5 L 0.1875 -5 Z M 3.90625 -5 "/></g></g></g><g fill="#ffffff" fill-opacity="1"><g transform="translate(164.440789, 283.444633)"><g><path d="M 2.1875 0 L 1.421875 0 L 0.265625 -5 L 0.84375 -5 L 1.796875 -0.859375 L 1.875 -0.859375 L 3 -5 L 3.546875 -5 L 4.65625 -0.859375 L 4.75 -0.859375 L 5.6875 -5 L 6.25 -5 L 5.109375 0 L 4.34375 0 L 3.296875 -3.78125 L 3.234375 -3.78125 Z M 2.1875 0 "/></g></g></g><g fill="#ffffff" fill-opacity="1"><g transform="translate(175.102664, 283.444633)"><g><path d="M 4.5 0 L 3.875 0 L 3.40625 -1.375 L 1.28125 -1.375 L 0.8125 0 L 0.203125 0 L 1.9375 -5 L 2.75 -5 Z M 2.296875 -4.390625 L 1.4375 -1.859375 L 3.234375 -1.859375 L 2.390625 -4.390625 Z M 2.296875 -4.390625 "/></g></g></g><g fill="#ffffff" fill-opacity="1"><g transform="translate(183.935934, 283.444633)"><g><path d="M 0.75 0 L 0.75 -5 L 2.578125 -5 C 2.910156 -5 3.1875 -4.941406 3.40625 -4.828125 C 3.632812 -4.722656 3.804688 -4.566406 3.921875 -4.359375 C 4.035156 -4.160156 4.09375 -3.921875 4.09375 -3.640625 C 4.09375 -3.335938 4.015625 -3.082031 3.859375 -2.875 C 3.710938 -2.675781 3.472656 -2.523438 3.140625 -2.421875 L 3.140625 -2.359375 C 3.304688 -2.296875 3.4375 -2.191406 3.53125 -2.046875 C 3.632812 -1.910156 3.734375 -1.707031 3.828125 -1.4375 L 4.28125 0 L 3.671875 0 L 3.171875 -1.53125 C 3.117188 -1.707031 3.050781 -1.847656 2.96875 -1.953125 C 2.894531 -2.054688 2.796875 -2.128906 2.671875 -2.171875 C 2.554688 -2.222656 2.410156 -2.25 2.234375 -2.25 L 1.34375 -2.25 L 1.34375 0 Z M 2.5625 -2.734375 C 2.875 -2.734375 3.101562 -2.804688 3.25 -2.953125 C 3.40625 -3.097656 3.484375 -3.320312 3.484375 -3.625 C 3.484375 -3.914062 3.40625 -4.132812 3.25 -4.28125 C 3.101562 -4.425781 2.875 -4.5 2.5625 -4.5 L 1.34375 -4.5 L 1.34375 -2.734375 Z M 2.5625 -2.734375 "/></g></g></g><g fill="#ffffff" fill-opacity="1"><g transform="translate(192.700845, 283.444633)"><g><path d="M 1.34375 -2.359375 L 1.34375 -0.484375 L 3.890625 -0.484375 L 3.890625 0 L 0.75 0 L 0.75 -5 L 3.828125 -5 L 3.828125 -4.515625 L 1.34375 -4.515625 L 1.34375 -2.84375 L 3.546875 -2.84375 L 3.546875 -2.359375 Z M 1.34375 -2.359375 "/></g></g></g><g fill="#ffffff" fill-opacity="1"><g transform="translate(201.059019, 283.444633)"><g/></g></g><g fill="#ffffff" fill-opacity="1"><g transform="translate(206.911827, 283.444633)"><g><path d="M 1.34375 -2.359375 L 1.34375 -0.484375 L 3.890625 -0.484375 L 3.890625 0 L 0.75 0 L 0.75 -5 L 3.828125 -5 L 3.828125 -4.515625 L 1.34375 -4.515625 L 1.34375 -2.84375 L 3.546875 -2.84375 L 3.546875 -2.359375 Z M 1.34375 -2.359375 "/></g></g></g><g fill="#ffffff" fill-opacity="1"><g transform="translate(215.269997, 283.444633)"><g><path d="M 1.328125 0 L 0.75 0 L 0.75 -5 L 1.484375 -5 L 3.90625 -1.171875 L 4 -1.1875 L 4 -5 L 4.5625 -5 L 4.5625 0 L 3.953125 0 L 1.421875 -4.078125 L 1.328125 -4.078125 Z M 1.328125 0 "/></g></g></g><g fill="#ffffff" fill-opacity="1"><g transform="translate(224.735585, 283.444633)"><g><path d="M 2.625 0.078125 C 2.207031 0.078125 1.835938 -0.015625 1.515625 -0.203125 C 1.203125 -0.398438 0.953125 -0.691406 0.765625 -1.078125 C 0.585938 -1.460938 0.5 -1.9375 0.5 -2.5 C 0.5 -3.0625 0.59375 -3.535156 0.78125 -3.921875 C 0.976562 -4.304688 1.25 -4.59375 1.59375 -4.78125 C 1.9375 -4.96875 2.328125 -5.0625 2.765625 -5.0625 C 3.242188 -5.0625 3.632812 -4.972656 3.9375 -4.796875 C 4.25 -4.628906 4.472656 -4.378906 4.609375 -4.046875 L 4.21875 -3.8125 L 4.140625 -3.8125 C 4.003906 -4.070312 3.828125 -4.257812 3.609375 -4.375 C 3.390625 -4.488281 3.109375 -4.546875 2.765625 -4.546875 C 1.671875 -4.546875 1.125 -3.863281 1.125 -2.5 C 1.125 -1.789062 1.257812 -1.269531 1.53125 -0.9375 C 1.8125 -0.613281 2.203125 -0.453125 2.703125 -0.453125 C 3.160156 -0.453125 3.5 -0.554688 3.71875 -0.765625 C 3.945312 -0.972656 4.0625 -1.300781 4.0625 -1.75 L 4.0625 -2.1875 L 2.640625 -2.1875 L 2.640625 -2.65625 L 4.640625 -2.65625 L 4.640625 0 L 4.09375 0 L 4.09375 -0.671875 L 4.015625 -0.6875 C 3.890625 -0.425781 3.707031 -0.234375 3.46875 -0.109375 C 3.226562 0.015625 2.945312 0.078125 2.625 0.078125 Z M 2.625 0.078125 "/></g></g></g><g fill="#ffffff" fill-opacity="1"><g transform="translate(234.067873, 283.444633)"><g><path d="M 1.34375 0 L 0.75 0 L 0.75 -5 L 1.34375 -5 Z M 1.34375 0 "/></g></g></g><g fill="#ffffff" fill-opacity="1"><g transform="translate(240.306907, 283.444633)"><g><path d="M 1.328125 0 L 0.75 0 L 0.75 -5 L 1.484375 -5 L 3.90625 -1.171875 L 4 -1.1875 L 4 -5 L 4.5625 -5 L 4.5625 0 L 3.953125 0 L 1.421875 -4.078125 L 1.328125 -4.078125 Z M 1.328125 0 "/></g></g></g><g fill="#ffffff" fill-opacity="1"><g transform="translate(249.772496, 283.444633)"><g><path d="M 1.34375 -2.359375 L 1.34375 -0.484375 L 3.890625 -0.484375 L 3.890625 0 L 0.75 0 L 0.75 -5 L 3.828125 -5 L 3.828125 -4.515625 L 1.34375 -4.515625 L 1.34375 -2.84375 L 3.546875 -2.84375 L 3.546875 -2.359375 Z M 1.34375 -2.359375 "/></g></g></g><g fill="#ffffff" fill-opacity="1"><g transform="translate(258.130665, 283.444633)"><g><path d="M 1.34375 -2.359375 L 1.34375 -0.484375 L 3.890625 -0.484375 L 3.890625 0 L 0.75 0 L 0.75 -5 L 3.828125 -5 L 3.828125 -4.515625 L 1.34375 -4.515625 L 1.34375 -2.84375 L 3.546875 -2.84375 L 3.546875 -2.359375 Z M 1.34375 -2.359375 "/></g></g></g><g fill="#ffffff" fill-opacity="1"><g transform="translate(266.488834, 283.444633)"><g><path d="M 0.75 0 L 0.75 -5 L 2.578125 -5 C 2.910156 -5 3.1875 -4.941406 3.40625 -4.828125 C 3.632812 -4.722656 3.804688 -4.566406 3.921875 -4.359375 C 4.035156 -4.160156 4.09375 -3.921875 4.09375 -3.640625 C 4.09375 -3.335938 4.015625 -3.082031 3.859375 -2.875 C 3.710938 -2.675781 3.472656 -2.523438 3.140625 -2.421875 L 3.140625 -2.359375 C 3.304688 -2.296875 3.4375 -2.191406 3.53125 -2.046875 C 3.632812 -1.910156 3.734375 -1.707031 3.828125 -1.4375 L 4.28125 0 L 3.671875 0 L 3.171875 -1.53125 C 3.117188 -1.707031 3.050781 -1.847656 2.96875 -1.953125 C 2.894531 -2.054688 2.796875 -2.128906 2.671875 -2.171875 C 2.554688 -2.222656 2.410156 -2.25 2.234375 -2.25 L 1.34375 -2.25 L 1.34375 0 Z M 2.5625 -2.734375 C 2.875 -2.734375 3.101562 -2.804688 3.25 -2.953125 C 3.40625 -3.097656 3.484375 -3.320312 3.484375 -3.625 C 3.484375 -3.914062 3.40625 -4.132812 3.25 -4.28125 C 3.101562 -4.425781 2.875 -4.5 2.5625 -4.5 L 1.34375 -4.5 L 1.34375 -2.734375 Z M 2.5625 -2.734375 "/></g></g></g></svg>